<?xml version="1.0" encoding="UTF-8" standalone="no"?>
<svg
   xmlns:dc="http://purl.org/dc/elements/1.1/"
   xmlns:cc="http://creativecommons.org/ns#"
   xmlns:rdf="http://www.w3.org/1999/02/22-rdf-syntax-ns#"
   xmlns:svg="http://www.w3.org/2000/svg"
   xmlns="http://www.w3.org/2000/svg"
   xmlns:sodipodi="http://sodipodi.sourceforge.net/DTD/sodipodi-0.dtd"
   xmlns:inkscape="http://www.inkscape.org/namespaces/inkscape"
   viewBox="0 0 1399.8601 474.42734"
   version="1.1"
   id="svg82"
   sodipodi:docname="wordmark.svg"
   width="1399.8601"
   height="474.42734"
   inkscape:version="1.0.2 (e86c8708, 2021-01-15)">
  <metadata
     id="metadata86">
    <rdf:RDF>
      <cc:Work
         rdf:about="">
        <dc:format>image/svg+xml</dc:format>
        <dc:type
           rdf:resource="http://purl.org/dc/dcmitype/StillImage" />
        <dc:title />
      </cc:Work>
    </rdf:RDF>
  </metadata>
  <sodipodi:namedview
     pagecolor="#ffffff"
     bordercolor="#666666"
     borderopacity="1"
     objecttolerance="10"
     gridtolerance="10"
     guidetolerance="10"
     inkscape:pageopacity="0"
     inkscape:pageshadow="2"
     inkscape:window-width="1268"
     inkscape:window-height="729"
     id="namedview84"
     showgrid="false"
     fit-margin-top="50"
     fit-margin-left="50"
     fit-margin-right="50"
     fit-margin-bottom="50"
     lock-margins="false"
     inkscape:zoom="0.67824011"
     inkscape:cx="946.91308"
     inkscape:cy="265.20035"
     inkscape:window-x="0"
     inkscape:window-y="25"
     inkscape:window-maximized="0"
     inkscape:current-layer="svg82"
     inkscape:document-rotation="0" />
  <defs
     id="defs12">
    <style
       id="style10">.cls-1{fill:#fff;}.cls-2{fill:#b3b3b3;}.cls-3{fill:#ff6c5c;}.cls-4{fill:#d73c2c;}.cls-5,.cls-7{fill:#ffccbc;}.cls-6{fill:#00324d;}.cls-7{fill-rule:evenodd;}</style>
  </defs>
  <g
     id="Layer_2"
     data-name="Layer 2"
     transform="translate(50,50)">
    <g
       id="Layer_1-2"
       data-name="Layer 1">
      <polygon
         class="cls-1"
         points="144.22,334.68 154.21,367.86 126.31,367.86 136.55,334.68 "
         id="polygon14" />
      <polygon
         class="cls-2"
         points="136.55,334.68 144.22,334.68 144.35,335.12 141.09,335.12 130.98,367.86 126.31,367.86 "
         id="polygon16" />
      <path
         class="cls-3"
         d="m 275.15,88.33 c 0,16.22 -10.3,27.85 -31.41,35.42 l 5.42,-23.59 a 15.62,15.62 0 0 0 -8.9,-17.74 c -9.84,-4.36 -28,-10 -59.56,-12.79 l 14.38,-13.5 a 3.22,3.22 0 0 0 -2.2,-5.57 h -31 V 44.9 a 3.18,3.18 0 0 0 -1.06,-2.38 L 143,26.31 a 3.23,3.23 0 0 0 -4.33,0 l -17.89,16.21 a 3.22,3.22 0 0 0 -1.06,2.38 v 5.66 h -31 a 3.22,3.22 0 0 0 -2.21,5.57 L 101.24,70 C 71.61,72.93 54.42,78.32 45.06,82.47 a 15.61,15.61 0 0 0 -8.9,17.75 l 5.74,24.94 C 18.06,117.6 6.45,105.53 6.45,88.33 6.45,69 20.59,48.71 45.26,32.81 c 26.37,-17 60.3,-26.36 95.54,-26.36 35.24,0 69.2,9.36 95.53,26.36 24.67,15.9 38.82,36.19 38.82,55.52 z"
         id="path18" />
      <path
         class="cls-4"
         d="M 243.62,37.87 C 218.54,23.87 187.81,16.25 156,16.25 q -8.12,0 -16.12,0.66 C 110.52,19.3 82.78,28.22 60.46,42.61 35.79,58.51 21.65,78.75 21.65,98.13 a 30.64,30.64 0 0 0 9.84,23.07 C 14.67,113.65 6.49,102.8 6.49,88.33 6.45,69 20.59,48.71 45.26,32.81 c 26.37,-17 60.3,-26.36 95.54,-26.36 35.24,0 69.2,9.36 95.53,26.36 q 3.81,2.46 7.29,5.06 z"
         id="path20" />
      <path
         class="cls-1"
         d="m 260.18,179.77 a 52.94,52.94 0 1 1 -53,52.94 53,53 0 0 1 53,-52.94 z m 45.55,52.94 a 45.55,45.55 0 1 0 -45.55,45.55 45.6,45.6 0 0 0 45.55,-45.55 z"
         id="path22" />
      <circle
         class="cls-3"
         cx="260.17999"
         cy="232.71001"
         r="39.099998"
         id="circle24" />
      <path
         class="cls-4"
         d="m 272.68,269.76 a 39.1,39.1 0 1 1 -17.1,-75.87 39.1,39.1 0 0 0 12.53,76.11 38.28,38.28 0 0 0 4.57,-0.24 z"
         id="path26" />
      <rect
         class="cls-1"
         x="241.83"
         y="311.34"
         width="36.700001"
         height="52.68"
         rx="2.74"
         id="rect28" />
      <path
         class="cls-1"
         d="m 265.83,166.12 a 55.26,55.26 0 0 1 -0.53,7.43 c -1.69,-0.15 -3.4,-0.24 -5.12,-0.24 A 59.28,59.28 0 0 0 242.56,176 v -35 c 15.65,1.09 23.27,9.35 23.27,25.12 z"
         id="path30" />
      <path
         class="cls-1"
         d="m 263.55,292 v 12.89 H 256.8 V 292 c 1.12,0.06 2.24,0.1 3.38,0.1 1.14,0 2.26,-0.04 3.37,-0.1 z"
         id="path32" />
      <path
         class="cls-3"
         d="m 237.65,88.32 a 9.15,9.15 0 0 1 5.22,10.4 l -1.82,7.94 a 3.3,3.3 0 0 0 -1.36,-0.31 h -194 a 3.31,3.31 0 0 0 -1.37,0.31 l -1.83,-7.94 a 9.17,9.17 0 0 1 5.24,-10.4 C 57.22,84.1 75.29,78.55 107.58,75.86 L 122,89.45 a 3.24,3.24 0 0 0 2.21,0.87 h 33.13 a 3.24,3.24 0 0 0 2.21,-0.87 l 14.79,-13.87 c 34.29,2.56 53.34,8.32 63.31,12.74 z"
         id="path34" />
      <path
         class="cls-3"
         d="m 49.07,112.8 h 187.18 a 24.64,24.64 0 0 1 -24.39,21.38 H 73.46 A 24.64,24.64 0 0 1 49.07,112.8 Z"
         id="path36" />
      <path
         class="cls-1"
         d="m 236.1,132.45 v 46 a 59.75,59.75 0 0 0 -30,29.83 c -7,-3.7 -12,-15.69 -14.82,-22.45 -2.67,-6.46 -8.9,-14.57 -16.28,-17.11 -7.55,-2.6 -10.09,-2.59 -16.88,-2.58 h -30.89 c -6.78,0 -9.33,0 -16.88,2.58 -7.38,2.54 -13.61,10.65 -16.28,17.11 -6.84,16.5 -13.44,26.68 -23.45,22.71 a 3.23,3.23 0 0 0 -3.47,5.28 c 2.79,2.79 21.76,14.5 38.46,-0.91 a 119,119 0 0 0 9.87,-10.4 c 6.5,-7.52 9.46,-11 24.39,-10.85 h 0.56 1.57 a 4.71,4.71 0 0 0 0.53,0 h 0.29 a 4.58,4.58 0 0 0 0.53,0 h 1.55 a 5.12,5.12 0 0 0 0.56,0 c 14.87,-0.15 17.89,3.33 24.39,10.85 a 120.54,120.54 0 0 0 9.87,10.4 c 6.46,6 13.13,7.83 18.95,7.83 a 28.7,28.7 0 0 0 3.39,-0.21 59.19,59.19 0 0 0 0.86,27.93 c -0.56,0 -1.13,0 -1.69,0 H 83.94 a 34.72,34.72 0 0 1 -15.75,-3.77 l -4.87,-3 A 34.84,34.84 0 0 1 49.05,213.6 v -84.86 a 31,31 0 0 0 24.41,11.89 h 138.4 a 30.94,30.94 0 0 0 22.32,-9.5 3.23,3.23 0 0 0 1.92,1.32 z"
         id="path38" />
      <path
         class="cls-3"
         d="m 235.68,311.76 a 9.34,9.34 0 0 0 -0.3,2.32 v 42.67 c -10.87,4.56 -31.6,9.51 -70.89,10.85 L 212.91,289 a 96.9,96.9 0 0 1 22.77,22.76 z"
         id="path40" />
      <path
         class="cls-3"
         d="m 195.37,273.9 a 103.34,103.34 0 0 1 12.22,9.91 c -3.31,3 -9.68,9.42 -23.06,23.25 -8.51,8.79 -17,17.67 -21.19,22.06 a 31.15,31.15 0 0 1 -2.12,-4.55 c -1.68,-4.5 -3.42,-12.11 -2.39,-23.07 4.17,-3.43 23.36,-17.82 36.54,-27.6 z"
         id="path42" />
      <path
         class="cls-1"
         d="m 202.83,213.86 c -6.9,1.33 -13.19,-0.59 -18.74,-5.71 a 110.91,110.91 0 0 1 -9.37,-9.88 c -6.78,-7.85 -11.31,-13.09 -28.58,-13.09 h -1.22 -0.32 -1 -0.22 -1.48 -0.22 -1 -0.32 c -18.29,-0.23 -22.85,5.05 -29.79,13.08 a 113.51,113.51 0 0 1 -9.36,9.88 c -6.53,6 -13.31,6.71 -18.74,5.71 9,-5 14.43,-18.09 17.54,-25.59 2.14,-5.19 7.22,-11.68 12.41,-13.47 6.52,-2.24 8.28,-2.24 14.77,-2.23 h 30.91 c 6.51,0 8.25,0 14.77,2.22 5.19,1.8 10.27,8.29 12.42,13.49 4.24,10.23 9.38,21.19 17.54,25.59 z"
         id="path44" />
      <path
         class="cls-1"
         d="m 83.94,254.93 h 112.5 a 17.43,17.43 0 0 0 -4.37,11.36 l -0.22,2.19 c -3.18,2.36 -10.8,8 -18.34,13.68 -5.77,4.33 -10.36,7.81 -13.65,10.33 -2,1.51 -3.48,2.7 -4.51,3.53 -1.65,1.33 -3,2.42 -2.87,4.13 v 0 h -25.69 v 0 c 0.14,-1.71 -1.21,-2.8 -2.86,-4.13 -1,-0.83 -2.56,-2 -4.52,-3.53 -3.29,-2.52 -7.88,-6 -13.65,-10.33 -7.05,-5.29 -14.17,-10.59 -17.67,-13.19 -0.13,-1.05 -0.27,-2.26 -0.3,-2.59 a 17.37,17.37 0 0 0 -4.38,-11.46 z"
         id="path46" />
      <path
         class="cls-3"
         d="m 195.39,305.13 -35.82,58.15 -9.12,-30.28 5.53,-4.2 a 26.28,26.28 0 0 0 4.71,7.64 3.22,3.22 0 0 0 2.29,1 v 0 a 3.23,3.23 0 0 0 2.31,-1 c 8.77,-9.23 20.42,-21.37 30.1,-31.31 z"
         id="path48" />
      <path
         class="cls-5"
         d="M 184.73,57 156.09,83.87 H 125.51 L 96.87,57 H 123 a 3.23,3.23 0 0 0 3.22,-3.23 v -7.44 l 14.58,-13.27 14.62,13.27 v 7.45 a 3.23,3.23 0 0 0 3.23,3.22 z"
         id="path50" />
      <path
         class="cls-1"
         d="m 153.79,322.36 -7.72,5.87 h -12.18 l -8.27,-6.41 a 58.62,58.62 0 0 0 1.57,-15.19 h 24.89 a 58.09,58.09 0 0 0 1.71,15.73 z"
         id="path52" />
      <path
         class="cls-3"
         d="m 130.16,333.5 -9.25,30 L 83.44,305 c 9.9,10.08 21.65,22.22 30.52,31.46 a 3.26,3.26 0 0 0 2.31,1 v 0 a 3.26,3.26 0 0 0 2.3,-1 27.39,27.39 0 0 0 4.9,-8.11 z"
         id="path54" />
      <path
         class="cls-3"
         d="m 120.44,301.5 c 1.38,14.64 -2.17,23.5 -4.53,27.63 -4.31,-4.48 -13.16,-13.65 -22,-22.73 C 80.19,292.34 73.6,285.75 70.17,282.65 a 98.8,98.8 0 0 1 13.55,-8.9 c 13.17,9.79 32.55,24.3 36.72,27.75 z"
         id="path56" />
      <path
         class="cls-3"
         d="M 64.86,287.88 116,367.74 C 37,365.67 29,349.45 28.36,347.32 a 3.08,3.08 0 0 0 0.1,-0.75 c 0.68,-31.85 28.01,-52.95 36.4,-58.69 z"
         id="path58" />
      <path
         class="cls-1"
         d="m 42.6,140.82 v 71.43 c -6.35,-0.18 -13,-5.61 -18.36,-15 a 66.91,66.91 0 0 1 -8.48,-31.16 c 0,-16.89 8.79,-25.17 26.84,-25.27 z"
         id="path60" />
      <path
         class="cls-2"
         d="m 26.39,166.12 a 66.91,66.91 0 0 0 8.48,31.16 40.86,40.86 0 0 0 7.73,10 v 5 c -6.35,-0.18 -13,-5.61 -18.36,-15 a 66.91,66.91 0 0 1 -8.48,-31.16 c 0,-16.92 8.79,-25.2 26.84,-25.3 v 1.27 C 31.72,145 26.39,153 26.39,166.12 Z"
         id="path62" />
      <path
         class="cls-2"
         d="m 152.48,300.15 v 0 h -25.69 v 0 c 0.14,-1.71 -1.21,-2.8 -2.86,-4.13 -1,-0.83 -2.56,-2 -4.52,-3.53 -3.29,-2.52 -7.88,-6 -13.65,-10.33 -7.05,-5.29 -14.17,-10.59 -17.67,-13.19 -0.13,-1.05 -0.27,-2.26 -0.3,-2.59 a 17.37,17.37 0 0 0 -4.38,-11.46 h 11.23 a 17.35,17.35 0 0 1 3.68,10.61 c 0,0.33 0.17,1.54 0.3,2.59 3.5,2.61 10.62,7.9 17.67,13.19 5.77,4.34 10.36,7.81 13.65,10.34 2,1.5 3.48,2.69 4.52,3.52 1.65,1.34 3,2.42 2.86,4.13 v 0 h 15.21 a 2.72,2.72 0 0 0 -0.05,0.85 z"
         id="path64" />
      <path
         class="cls-4"
         d="m 117.52,325.83 a 30.17,30.17 0 0 1 -1.61,3.3 C 111.6,324.65 102.75,315.48 93.91,306.4 80.19,292.34 73.6,285.75 70.17,282.65 a 98.8,98.8 0 0 1 13.55,-8.9 l 4.28,3.17 a 88.33,88.33 0 0 0 -11.25,7.57 c 3.43,3.1 10,9.69 23.74,23.75 6.17,6.37 12.38,12.76 17.03,17.59 z"
         id="path66" />
      <path
         class="cls-4"
         d="m 35,348.41 a 3.08,3.08 0 0 1 -0.1,0.75 c 0.38,1.19 3,6.77 19,11.83 -21.88,-5.45 -25.16,-12.33 -25.59,-13.67 a 3.08,3.08 0 0 0 0.1,-0.75 c 0.68,-31.85 28,-52.95 36.4,-58.69 l 2.88,4.5 C 57,300.58 35.62,320.31 35,348.41 Z"
         id="path68" />
      <path
         class="cls-2"
         d="m 152.08,307.06 h -20.35 a 58.75,58.75 0 0 1 -1.57,15.2 l 7.71,6 h -4 l -8.27,-6.41 a 58.62,58.62 0 0 0 1.57,-15.19 h 24.89 c 0.02,0.12 0.01,0.26 0.02,0.4 z"
         id="path70" />
      <path
         class="cls-6"
         d="M 271.69,174.44 A 59.39,59.39 0 0 1 270,291.27 v 13.62 h 5.79 a 9.2,9.2 0 0 1 9.19,9.19 v 47.2 a 9.2,9.2 0 0 1 -9.19,9.19 h -31.23 a 9.19,9.19 0 0 1 -8.88,-6.89 c -16.27,6.24 -41.88,9.81 -76.37,10.64 v 0 a 3.06,3.06 0 0 1 -0.74,0.09 h -3.87 c -3.77,0.06 -7.63,0.1 -11.6,0.1 h -5 C 50,375 28.35,360.4 23.26,351.67 a 8,8 0 0 1 -1.23,-5.9 c 1.18,-37.33 34.13,-60.07 40.85,-64.33 2.2,-4.27 12.06,-10.23 18.56,-13.82 a 8.6,8.6 0 0 1 -0.1,-1.16 10.94,10.94 0 0 0 -5.79,-9.66 L 75.37,256.7 65,250.31 a 40,40 0 0 1 -5.17,-3.18 l -0.18,-0.1 -0.32,-0.25 A 41.35,41.35 0 0 1 42.94,218.72 v 0 c -18.62,0 -33.61,-28.78 -33.61,-52.6 0,-20.37 11.82,-31.63 33.29,-31.75 v -2.3 C 13.94,123.71 0,109.39 0,88.33 0,66.71 15.22,44.5 41.77,27.39 69.16,9.73 104.33,0 140.8,0 c 36.47,0 71.63,9.73 99,27.39 26.57,17.11 41.8,39.32 41.8,60.94 0,19.89 -13.14,34.23 -39,42.64 v 3.54 c 19.2,1.28 29.72,12.41 29.72,31.61 a 61.79,61.79 0 0 1 -0.63,8.32 z m 41.43,58.27 a 52.95,52.95 0 1 0 -52.94,52.94 53,53 0 0 0 52.94,-52.94 z m -34.59,128.57 v -47.2 a 2.74,2.74 0 0 0 -2.74,-2.74 h -31.23 a 2.74,2.74 0 0 0 -2.73,2.74 v 47.2 a 2.74,2.74 0 0 0 2.73,2.74 h 31.23 a 2.74,2.74 0 0 0 2.74,-2.74 z M 243.74,123.75 c 21.11,-7.57 31.41,-19.2 31.41,-35.42 C 275.15,68.95 261,48.71 236.33,32.81 210,15.81 176,6.45 140.8,6.45 105.6,6.45 71.63,15.81 45.26,32.81 20.59,48.71 6.45,69 6.45,88.33 c 0,17.2 11.61,29.27 35.45,36.78 l -5.74,-24.94 a 15.61,15.61 0 0 1 8.9,-17.75 c 9.36,-4.15 26.55,-9.54 56.18,-12.47 L 86.51,56.13 a 3.22,3.22 0 0 1 2.21,-5.57 h 31 V 44.9 a 3.22,3.22 0 0 1 1.06,-2.38 l 17.85,-16.21 a 3.23,3.23 0 0 1 4.33,0 l 17.85,16.21 a 3.18,3.18 0 0 1 1.06,2.38 v 5.66 h 31 a 3.22,3.22 0 0 1 2.2,5.57 l -14.37,13.5 c 31.56,2.83 49.72,8.43 59.56,12.79 a 15.62,15.62 0 0 1 8.9,17.74 z m 21.56,49.8 a 55.26,55.26 0 0 0 0.53,-7.43 c 0,-15.77 -7.62,-24 -23.27,-25.16 v 35 a 59.28,59.28 0 0 1 17.62,-2.67 c 1.72,0.02 3.43,0.11 5.12,0.26 z m -1.75,131.34 V 292 c -1.11,0.06 -2.24,0.1 -3.37,0.1 -1.13,0 -2.26,0 -3.38,-0.1 v 12.89 z m -13.2,0 V 291.27 A 59.58,59.58 0 0 1 205.6,256.12 l -1.28,0.68 a 10.93,10.93 0 0 0 -5.8,9.66 c 0,0.11 0,0.22 0,0.33 l -0.14,1.32 c 4.86,3.41 13.48,9.82 16,14.09 a 104.31,104.31 0 0 1 25.29,24.1 9.06,9.06 0 0 1 4.86,-1.41 z M 242.87,98.72 a 9.15,9.15 0 0 0 -5.22,-10.4 c -10,-4.42 -29,-10.18 -63.29,-12.74 l -14.79,13.87 a 3.24,3.24 0 0 1 -2.21,0.87 h -33.13 a 3.24,3.24 0 0 1 -2.21,-0.87 L 107.53,75.86 C 75.24,78.55 57.17,84.1 47.68,88.32 a 9.17,9.17 0 0 0 -5.24,10.4 l 1.83,7.94 a 3.31,3.31 0 0 1 1.37,-0.31 h 194.05 a 3.3,3.3 0 0 1 1.36,0.31 z m -6.62,14.08 H 49.07 a 24.64,24.64 0 0 0 24.39,21.38 h 138.4 a 24.64,24.64 0 0 0 24.39,-21.38 z m -0.15,65.63 v -46 a 3.23,3.23 0 0 1 -1.92,-1.32 30.94,30.94 0 0 1 -22.32,9.5 H 73.46 A 31,31 0 0 1 49.05,128.72 v 84.88 a 34.84,34.84 0 0 0 14.27,28.11 l 4.87,3 a 34.72,34.72 0 0 0 15.75,3.77 h 117.28 c 0.56,0 1.13,0 1.69,0 a 59.19,59.19 0 0 1 -0.86,-27.93 28.7,28.7 0 0 1 -3.39,0.21 c -5.82,0 -12.49,-1.87 -18.95,-7.83 a 120.54,120.54 0 0 1 -9.87,-10.4 c -6.5,-7.52 -9.52,-11 -24.39,-10.85 a 5.12,5.12 0 0 1 -0.56,0 h -1.55 a 4.58,4.58 0 0 1 -0.53,0 h -0.29 a 4.71,4.71 0 0 1 -0.53,0 h -1.56 -0.56 c -14.93,-0.14 -17.89,3.33 -24.39,10.85 a 119,119 0 0 1 -9.87,10.4 c -16.7,15.41 -35.67,3.7 -38.46,0.91 a 3.23,3.23 0 0 1 3.47,-5.28 c 10,4 16.61,-6.21 23.45,-22.71 2.67,-6.46 8.9,-14.57 16.28,-17.11 7.55,-2.6 10.1,-2.59 16.88,-2.58 h 30.86 c 6.79,0 9.33,0 16.88,2.58 7.38,2.54 13.61,10.65 16.28,17.11 2.8,6.76 7.78,18.75 14.82,22.45 a 59.75,59.75 0 0 1 30.03,-29.87 z m -0.72,135.65 a 9.34,9.34 0 0 1 0.3,-2.32 A 96.9,96.9 0 0 0 212.91,289 l -48.42,78.6 c 39.29,-1.34 60,-6.29 70.89,-10.85 z m -27.79,-30.27 a 103.34,103.34 0 0 0 -12.22,-9.91 c -13.18,9.78 -32.39,24.17 -36.54,27.6 -1,11 0.71,18.57 2.39,23.07 a 31.15,31.15 0 0 0 2.12,4.55 c 4.2,-4.39 12.68,-13.27 21.19,-22.06 13.38,-13.83 19.75,-20.26 23.06,-23.25 z m -23.5,-75.66 c 5.55,5.12 11.84,7 18.74,5.71 -8.16,-4.4 -13.3,-15.36 -17.54,-25.58 -2.15,-5.2 -7.23,-11.69 -12.42,-13.49 -6.52,-2.23 -8.26,-2.23 -14.77,-2.22 h -30.88 c -6.49,0 -8.25,0 -14.77,2.23 -5.19,1.79 -10.27,8.28 -12.41,13.47 -3.11,7.5 -8.54,20.59 -17.54,25.59 5.43,1 12.21,0.31 18.74,-5.71 a 113.51,113.51 0 0 0 9.36,-9.88 c 6.94,-8 11.5,-13.31 29.79,-13.08 h 0.32 1 0.22 1.48 0.22 1 0.32 1.22 c 17.27,0 21.8,5.24 28.58,13.09 a 110.91,110.91 0 0 0 9.34,9.87 z m 12.35,46.78 h -113 a 17.37,17.37 0 0 1 4.38,11.46 c 0,0.33 0.17,1.54 0.3,2.59 3.5,2.6 10.62,7.9 17.67,13.19 5.77,4.33 10.36,7.81 13.65,10.33 2,1.51 3.48,2.7 4.52,3.53 1.65,1.33 3,2.42 2.86,4.13 v 0 h 25.69 v 0 c -0.14,-1.71 1.22,-2.8 2.87,-4.13 1,-0.83 2.55,-2 4.51,-3.53 3.29,-2.52 7.88,-6 13.65,-10.33 7.54,-5.65 15.16,-11.32 18.34,-13.68 l 0.22,-2.19 a 17.43,17.43 0 0 1 4.34,-11.37 z m -36.87,108.35 35.82,-58.15 c -9.68,9.94 -21.33,22.08 -30.07,31.27 a 3.23,3.23 0 0 1 -2.31,1 v 0 a 3.22,3.22 0 0 1 -2.29,-1 26.28,26.28 0 0 1 -4.72,-7.6 l -5.53,4.2 z M 156.09,83.87 184.73,57 h -26.08 a 3.23,3.23 0 0 1 -3.23,-3.23 V 46.33 L 140.8,33.06 126.17,46.33 v 7.45 A 3.23,3.23 0 0 1 123,57 H 96.87 l 28.64,26.86 z m -1.88,284 -10,-33.18 h -7.67 l -10.24,33.18 z m -8.14,-39.63 7.72,-5.87 a 58.09,58.09 0 0 1 -1.71,-15.73 h -24.89 a 58.62,58.62 0 0 1 -1.57,15.19 l 8.27,6.41 z m -25.16,35.26 9.25,-30 -6.67,-5.17 a 27.39,27.39 0 0 1 -4.9,8.11 3.26,3.26 0 0 1 -2.3,1 v 0 a 3.26,3.26 0 0 1 -2.31,-1 C 105.09,327.17 93.34,315 83.44,305 Z m -5,-34.36 c 2.36,-4.13 5.91,-13 4.53,-27.63 -4.17,-3.45 -23.55,-18 -36.74,-27.75 a 98.8,98.8 0 0 0 -13.55,8.9 c 3.43,3.1 10,9.69 23.74,23.75 8.86,9.07 17.71,18.24 22.02,22.72 z m 0.06,38.61 -51.11,-79.87 c -8.39,5.74 -35.72,26.84 -36.4,58.69 a 3.08,3.08 0 0 1 -0.1,0.75 C 29,349.45 37,365.67 116,367.74 Z M 42.6,212.25 v -71.43 c -18,0.1 -26.84,8.38 -26.84,25.3 a 66.91,66.91 0 0 0 8.48,31.16 c 5.34,9.36 12.01,14.79 18.36,14.97 z"
         id="path72" />
      <path
         class="cls-7"
         d="m 291.65,205.72 a 33.16,33.16 0 0 0 -3.68,-4.18 15.64,15.64 0 0 0 -4.23,-3.42 c -0.82,-0.38 -1.67,-0.67 -2.48,-1 l -57.08,57.07 c 2.08,2.38 3.51,5.25 5.51,7.7 a 13.67,13.67 0 0 0 4.13,3.51 c 0.16,0.09 0.34,0.16 0.51,0.24 l 58.23,-58.22 a 11.19,11.19 0 0 0 -0.91,-1.7 z"
         id="path74" />
      <path
         class="cls-7"
         d="m 247.89,272.35 v 0 l 51.42,-51.42 -2,-8.11 -56.25,56.18 c 1.94,1.65 4.51,2.53 6.83,3.35 z"
         id="path76" />
      <path
         class="cls-6"
         d="m 260.18,187.16 a 45.55,45.55 0 1 1 -45.55,45.55 45.6,45.6 0 0 1 45.55,-45.55 z m 39.1,45.55 a 39.1,39.1 0 1 0 -39.1,39.1 39.14,39.14 0 0 0 39.1,-39.1 z"
         id="path78" />
    </g>
  </g>
  <g
     aria-label="stinsen"
     transform="scale(1.0124619,0.98769149)"
     id="text90"
     style="font-style:normal;font-weight:normal;font-size:58.2747px;line-height:1.25;font-family:sans-serif;fill:#ff6c5c;fill-opacity:1;stroke:none;stroke-width:1.45687">
    <path
       d="m 477.29195,354.87455 c 33.46235,0 59.00301,-18.16528 59.00301,-44.38884 v -0.27316 c 0,-21.03348 -13.38494,-33.05262 -41.1109,-39.74509 l -22.67245,-5.46324 c -17.34579,-4.23401 -24.72117,-10.51674 -24.72117,-20.48716 v -0.27316 c 0,-12.9752 12.83862,-21.98955 30.32099,-21.98955 17.75554,0 29.22835,8.05828 32.36971,19.66767 h 23.35536 c -3.27794,-24.03826 -24.72117,-39.47192 -55.58849,-39.47192 -31.27706,0 -54.769,18.43844 -54.769,42.88645 v 0.13658 c 0,21.17006 12.42888,33.1892 40.01825,39.74509 l 22.80904,5.46324 c 18.16528,4.37059 25.67723,11.33622 25.67723,21.30664 v 0.27316 c 0,13.38495 -14.06785,22.80904 -33.8721,22.80904 -18.84818,0 -30.59415,-8.05828 -34.555,-20.35058 H 419.245 c 2.73162,24.31143 25.26749,40.15483 58.04695,40.15483 z"
       style="font-style:normal;font-variant:normal;font-weight:normal;font-stretch:normal;font-size:279.718px;font-family:'SF Pro Text';-inkscape-font-specification:'SF Pro Text';fill:#ff6c5c;fill-opacity:1;stroke-width:1.45687"
       id="path566" />
    <path
       d="m 624.38974,353.37216 c 4.64375,0 9.15093,-0.54633 13.79468,-1.36581 v -20.214 c -4.37059,0.40975 -6.69247,0.54633 -10.92648,0.54633 -15.29708,0 -21.30665,-6.96564 -21.30665,-24.31143 v -83.31444 h 32.23313 v -19.66767 h -32.23313 v -38.10611 h -24.58458 v 38.10611 h -23.21878 v 19.66767 h 23.21878 v 89.32401 c 0,28.13569 12.70203,39.33534 43.02303,39.33534 z"
       style="font-style:normal;font-variant:normal;font-weight:normal;font-stretch:normal;font-size:279.718px;font-family:'SF Pro Text';-inkscape-font-specification:'SF Pro Text';fill:#ff6c5c;fill-opacity:1;stroke-width:1.45687"
       id="path568" />
    <path
       d="m 686.26095,176.63628 c 9.01435,0 16.38973,-7.37537 16.38973,-16.38972 0,-9.01435 -7.37538,-16.38973 -16.38973,-16.38973 -9.01435,0 -16.38972,7.37538 -16.38972,16.38973 0,9.01435 7.37537,16.38972 16.38972,16.38972 z m -12.01913,175.64323 h 23.7651 V 205.04514 h -23.7651 z"
       style="font-style:normal;font-variant:normal;font-weight:normal;font-stretch:normal;font-size:279.718px;font-family:'SF Pro Text';-inkscape-font-specification:'SF Pro Text';fill:#ff6c5c;fill-opacity:1;stroke-width:1.45687"
       id="path570" />
    <path
       d="m 743.07868,352.27951 h 23.7651 V 265.1408 c 0,-25.81382 14.88733,-41.65722 38.37927,-41.65722 23.49194,0 34.41843,12.70204 34.41843,39.19876 v 89.59717 h 23.7651 v -95.33357 c 0,-34.96475 -18.43844,-54.49584 -51.49106,-54.49584 -21.71638,0 -35.51107,9.15093 -42.88645,24.72117 h -2.18529 v -22.12613 h -23.7651 z"
       style="font-style:normal;font-variant:normal;font-weight:normal;font-stretch:normal;font-size:279.718px;font-family:'SF Pro Text';-inkscape-font-specification:'SF Pro Text';fill:#ff6c5c;fill-opacity:1;stroke-width:1.45687"
       id="path572" />
    <path
       d="m 956.96458,354.87455 c 33.46236,0 59.00302,-18.16528 59.00302,-44.38884 v -0.27316 c 0,-21.03348 -13.3849,-33.05262 -41.1109,-39.74509 l -22.67245,-5.46324 c -17.3458,-4.23401 -24.72117,-10.51674 -24.72117,-20.48716 v -0.27316 c 0,-12.9752 12.83862,-21.98955 30.32099,-21.98955 17.75554,0 29.22835,8.05828 32.36971,19.66767 h 23.35532 c -3.2779,-24.03826 -24.72113,-39.47192 -55.58845,-39.47192 -31.27706,0 -54.769,18.43844 -54.769,42.88645 v 0.13658 c 0,21.17006 12.42888,33.1892 40.01825,39.74509 l 22.80903,5.46324 c 18.16528,4.37059 25.67724,11.33622 25.67724,21.30664 v 0.27316 c 0,13.38495 -14.06785,22.80904 -33.8721,22.80904 -18.84818,0 -30.59415,-8.05828 -34.555,-20.35058 h -24.31143 c 2.73162,24.31143 25.26749,40.15483 58.04694,40.15483 z"
       style="font-style:normal;font-variant:normal;font-weight:normal;font-stretch:normal;font-size:279.718px;font-family:'SF Pro Text';-inkscape-font-specification:'SF Pro Text';fill:#ff6c5c;fill-opacity:1;stroke-width:1.45687"
       id="path574" />
    <path
       d="m 1112.9401,354.87455 c 34.6916,0 55.7251,-19.66767 60.7786,-39.6085 l 0.2732,-1.09265 h -23.7651 l -0.5464,1.22923 c -3.9608,8.87777 -16.2531,18.30186 -36.1939,18.30186 -26.2236,0 -43.0231,-17.75554 -43.706,-48.21311 h 105.9869 v -9.28751 c 0,-43.9791 -24.3114,-73.75377 -64.3296,-73.75377 -40.0183,0 -65.9687,31.14048 -65.9687,76.62197 v 0.13658 c 0,46.16439 25.4041,75.6659 67.471,75.6659 z m -1.6389,-131.25439 c 21.7164,0 37.8329,13.79469 40.2914,42.88645 h -81.4023 c 2.595,-27.99911 19.2579,-42.88645 41.1109,-42.88645 z"
       style="font-style:normal;font-variant:normal;font-weight:normal;font-stretch:normal;font-size:279.718px;font-family:'SF Pro Text';-inkscape-font-specification:'SF Pro Text';fill:#ff6c5c;fill-opacity:1;stroke-width:1.45687"
       id="path576" />
    <path
       d="m 1212.9175,352.27951 h 23.7651 V 265.1408 c 0,-25.81382 14.8873,-41.65722 38.3793,-41.65722 23.4919,0 34.4184,12.70204 34.4184,39.19876 v 89.59717 h 23.7651 v -95.33357 c 0,-34.96475 -18.4385,-54.49584 -51.4911,-54.49584 -21.7164,0 -35.511,9.15093 -42.8864,24.72117 h -2.1853 v -22.12613 h -23.7651 z"
       style="font-style:normal;font-variant:normal;font-weight:normal;font-stretch:normal;font-size:279.718px;font-family:'SF Pro Text';-inkscape-font-specification:'SF Pro Text';fill:#ff6c5c;fill-opacity:1;stroke-width:1.45687"
       id="path578" />
  </g>
</svg>
